<svg width="22" height="22" viewBox="0 0 22 22" fill="none" xmlns="http://www.w3.org/2000/svg">
<path d="M11 0.5C5.20138 0.5 0.5 5.27499 0.5 11.1644C0.5 16.1616 3.888 20.3429 8.4555 21.5C8.4065 21.356 8.375 21.189 8.375 20.9819V19.1592C7.94887 19.1592 7.23487 19.1592 7.0555 19.1592C6.33712 19.1592 5.69837 18.8455 5.38863 18.2625C5.04475 17.6146 4.98525 16.6237 4.133 16.0176C3.88013 15.8159 4.07262 15.5857 4.364 15.6168C4.90212 15.7714 5.34837 16.1465 5.76837 16.7028C6.18663 17.26 6.3835 17.3862 7.16487 17.3862C7.54375 17.3862 8.11075 17.364 8.6445 17.2787C8.9315 16.5384 9.42762 15.8567 10.034 15.535C6.5375 15.1698 4.86888 13.403 4.86888 11.0044C4.86888 9.97177 5.302 8.97287 6.03788 8.13127C5.79638 7.2959 5.49275 5.59226 6.13063 4.9435C7.70388 4.9435 8.655 5.97973 8.88338 6.25967C9.66738 5.98684 10.5284 5.8322 11.4331 5.8322C12.3396 5.8322 13.2041 5.98684 13.9899 6.26145C14.2156 5.98328 15.1676 4.9435 16.7444 4.9435C17.3849 5.59314 17.0777 7.30389 16.8336 8.1375C17.5651 8.97732 17.9956 9.97355 17.9956 11.0044C17.9956 13.4013 16.3296 15.1671 12.8384 15.5342C13.7991 16.0434 14.5 17.4742 14.5 18.5522V20.9819C14.5 21.0743 14.4799 21.141 14.4694 21.2201C18.5609 19.7635 21.5 15.8176 21.5 11.1644C21.5 5.27499 16.7986 0.5 11 0.5Z" fill="#878787"/>
</svg>
