<svg width="24" height="25" viewBox="0 0 24 25" fill="none" xmlns="http://www.w3.org/2000/svg">
<path d="M12 1.90894C6.20138 1.90894 1.5 6.68393 1.5 12.5733C1.5 17.5705 4.888 21.7518 9.4555 22.9089C9.4065 22.765 9.375 22.5979 9.375 22.3908V20.5681C8.94887 20.5681 8.23487 20.5681 8.0555 20.5681C7.33712 20.5681 6.69837 20.2544 6.38863 19.6714C6.04475 19.0235 5.98525 18.0326 5.133 17.4265C4.88013 17.2248 5.07262 16.9946 5.364 17.0257C5.90212 17.1804 6.34837 17.5554 6.76837 18.1117C7.18663 18.6689 7.3835 18.7951 8.16487 18.7951C8.54375 18.7951 9.11075 18.7729 9.6445 18.6876C9.9315 17.9473 10.4276 17.2657 11.034 16.944C7.5375 16.5787 5.86888 14.812 5.86888 12.4134C5.86888 11.3807 6.302 10.3818 7.03788 9.54021C6.79638 8.70483 6.49275 7.00119 7.13063 6.35244C8.70388 6.35244 9.655 7.38866 9.88338 7.66861C10.6674 7.39577 11.5284 7.24114 12.4331 7.24114C13.3396 7.24114 14.2041 7.39577 14.9899 7.67038C15.2156 7.39222 16.1676 6.35244 17.7444 6.35244C18.3849 7.00208 18.0777 8.71283 17.8336 9.54643C18.5651 10.3863 18.9956 11.3825 18.9956 12.4134C18.9956 14.8102 17.3296 16.5761 13.8384 16.9431C14.7991 17.4523 15.5 18.8831 15.5 19.9611V22.3908C15.5 22.4832 15.4799 22.5499 15.4694 22.629C19.5609 21.1724 22.5 17.2266 22.5 12.5733C22.5 6.68393 17.7986 1.90894 12 1.90894Z" fill="white"/>
</svg>
