<svg width="32" height="32" viewBox="0 0 32 32" fill="none" xmlns="http://www.w3.org/2000/svg">
<path d="M27.9491 17.0533C27.7393 19.3229 26.8876 21.4859 25.4934 23.2891C24.0993 25.0922 22.2204 26.4611 20.0767 27.2354C17.933 28.0097 15.6131 28.1575 13.3884 27.6615C11.1638 27.1654 9.12641 26.0461 7.51472 24.4344C5.90303 22.8227 4.78367 20.7853 4.28763 18.5607C3.79159 16.336 3.93938 14.0161 4.7137 11.8724C5.48803 9.72868 6.85686 7.84982 8.66004 6.45567C10.4632 5.06152 12.6261 4.20974 14.8958 4C13.567 5.79769 12.9276 8.0126 13.0938 10.2419C13.26 12.4712 14.2209 14.5667 15.8016 16.1475C17.3823 17.7282 19.4779 18.689 21.7072 18.8553C23.9365 19.0215 26.1514 18.3821 27.9491 17.0533Z" fill="#B4B4B4" stroke="#B4B4B4" stroke-width="1.5" stroke-linecap="round" stroke-linejoin="round"/>
<path d="M27.9491 17.0533C27.7393 19.3229 26.8876 21.4859 25.4934 23.2891C24.0993 25.0922 22.2204 26.4611 20.0767 27.2354C17.933 28.0097 15.6131 28.1575 13.3884 27.6615C11.1638 27.1654 9.12641 26.0461 7.51472 24.4344C5.90303 22.8227 4.78367 20.7853 4.28763 18.5607C3.79159 16.336 3.93938 14.0161 4.7137 11.8724C5.48803 9.72868 6.85686 7.84982 8.66004 6.45567C10.4632 5.06152 12.6261 4.20974 14.8958 4C13.567 5.79769 12.9276 8.0126 13.0938 10.2419C13.26 12.4712 14.2209 14.5667 15.8016 16.1475C17.3823 17.7282 19.4779 18.689 21.7072 18.8553C23.9365 19.0215 26.1514 18.3821 27.9491 17.0533Z" fill="#B4B4B4" stroke="#B4B4B4" stroke-width="1.5" stroke-linecap="round" stroke-linejoin="round"/>
</svg>
