<svg width="24" height="25" viewBox="0 0 24 25" fill="none" xmlns="http://www.w3.org/2000/svg">
<path d="M12 2C6.20138 2 1.5 6.77499 1.5 12.6644C1.5 17.6616 4.888 21.8429 9.4555 23C9.4065 22.856 9.375 22.689 9.375 22.4819V20.6592C8.94888 20.6592 8.23487 20.6592 8.0555 20.6592C7.33712 20.6592 6.69837 20.3455 6.38862 19.7625C6.04475 19.1146 5.98525 18.1237 5.133 17.5176C4.88012 17.3159 5.07262 17.0857 5.364 17.1168C5.90212 17.2714 6.34837 17.6465 6.76837 18.2028C7.18662 18.76 7.3835 18.8862 8.16487 18.8862C8.54375 18.8862 9.11075 18.864 9.6445 18.7787C9.9315 18.0384 10.4276 17.3567 11.034 17.035C7.5375 16.6698 5.86888 14.903 5.86888 12.5044C5.86888 11.4718 6.302 10.4729 7.03788 9.63127C6.79638 8.7959 6.49275 7.09226 7.13063 6.4435C8.70388 6.4435 9.655 7.47973 9.88338 7.75967C10.6674 7.48684 11.5284 7.33221 12.4331 7.33221C13.3396 7.33221 14.2041 7.48684 14.9899 7.76145C15.2156 7.48328 16.1676 6.4435 17.7444 6.4435C18.3849 7.09314 18.0777 8.80389 17.8336 9.63749C18.5651 10.4773 18.9956 11.4736 18.9956 12.5044C18.9956 14.9013 17.3296 16.6671 13.8384 17.0342C14.7991 17.5434 15.5 18.9742 15.5 20.0522V22.4819C15.5 22.5743 15.4799 22.641 15.4694 22.7201C19.5609 21.2635 22.5 17.3176 22.5 12.6644C22.5 6.77499 17.7986 2 12 2Z" fill="#252424"/>
</svg>
