<svg width="26" height="26" viewBox="0 0 26 26" fill="none" xmlns="http://www.w3.org/2000/svg">
<path d="M24.9491 14.0533C24.7393 16.3229 23.8876 18.4859 22.4934 20.2891C21.0993 22.0922 19.2204 23.4611 17.0767 24.2354C14.933 25.0097 12.6131 25.1575 10.3884 24.6615C8.16378 24.1654 6.12641 23.0461 4.51472 21.4344C2.90303 19.8227 1.78367 17.7853 1.28763 15.5607C0.791588 13.336 0.939375 11.0161 1.7137 8.8724C2.48803 6.72868 3.85686 4.84982 5.66004 3.45567C7.46321 2.06152 9.62615 1.20974 11.8958 1C10.567 2.79769 9.92755 5.0126 10.0938 7.24189C10.26 9.47117 11.2209 11.5667 12.8016 13.1475C14.3823 14.7282 16.4779 15.689 18.7072 15.8553C20.9365 16.0215 23.1514 15.3821 24.9491 14.0533Z" fill="#B4B4B4" stroke="#B4B4B4" stroke-width="1.5" stroke-linecap="round" stroke-linejoin="round"/>
</svg>
