<svg width="32" height="32" viewBox="0 0 32 32" fill="none" xmlns="http://www.w3.org/2000/svg">
<path d="M16 2C8.2685 2 2 8.36665 2 16.2192C2 22.8821 6.51733 28.4572 12.6073 30C12.542 29.808 12.5 29.5853 12.5 29.3092V26.8789C11.9318 26.8789 10.9798 26.8789 10.7407 26.8789C9.78283 26.8789 8.93117 26.4606 8.51817 25.6833C8.05967 24.8195 7.98033 23.4983 6.844 22.6901C6.50683 22.4212 6.7635 22.1143 7.152 22.1557C7.8695 22.3619 8.4645 22.862 9.0245 23.6037C9.58217 24.3467 9.84467 24.5149 10.8865 24.5149C11.3917 24.5149 12.1477 24.4853 12.8593 24.3716C13.242 23.3845 13.9035 22.4757 14.712 22.0467C10.05 21.5597 7.82517 19.2041 7.82517 16.0059C7.82517 14.629 8.40267 13.2972 9.38383 12.175C9.06183 11.0612 8.657 8.78967 9.5075 7.92467C11.6052 7.92467 12.8733 9.30631 13.1778 9.67956C14.2232 9.31579 15.3712 9.10961 16.5775 9.10961C17.7862 9.10961 18.9388 9.31579 19.9865 9.68193C20.2875 9.31105 21.5568 7.92467 23.6592 7.92467C24.5132 8.79086 24.1037 11.0719 23.7782 12.1833C24.7535 13.3031 25.3275 14.6314 25.3275 16.0059C25.3275 19.2017 23.1062 21.5562 18.4512 22.0455C19.7322 22.7245 20.6667 24.6322 20.6667 26.0696V29.3092C20.6667 29.4324 20.6398 29.5213 20.6258 29.6267C26.0812 27.6846 30 22.4235 30 16.2192C30 8.36665 23.7315 2 16 2Z" fill="#878787"/>
</svg>
