<svg width="24" height="25" viewBox="0 0 24 25" fill="none" xmlns="http://www.w3.org/2000/svg">
<path d="M12 2.46448C6.20138 2.46448 1.5 7.23947 1.5 13.1289C1.5 18.1261 4.888 22.3074 9.4555 23.4645C9.4065 23.3205 9.375 23.1534 9.375 22.9464V21.1236C8.94887 21.1236 8.23487 21.1236 8.0555 21.1236C7.33712 21.1236 6.69837 20.8099 6.38863 20.2269C6.04475 19.5791 5.98525 18.5882 5.133 17.9821C4.88013 17.7803 5.07262 17.5502 5.364 17.5813C5.90212 17.7359 6.34837 18.1109 6.76837 18.6673C7.18663 19.2245 7.3835 19.3507 8.16487 19.3507C8.54375 19.3507 9.11075 19.3285 9.6445 19.2431C9.9315 18.5029 10.4276 17.8212 11.034 17.4995C7.5375 17.1343 5.86888 15.3675 5.86888 12.9689C5.86888 11.9363 6.302 10.9374 7.03788 10.0958C6.79638 9.26037 6.49275 7.55673 7.13063 6.90798C8.70388 6.90798 9.655 7.94421 9.88338 8.22415C10.6674 7.95132 11.5284 7.79668 12.4331 7.79668C13.3396 7.79668 14.2041 7.95132 14.9899 8.22592C15.2156 7.94776 16.1676 6.90798 17.7444 6.90798C18.3849 7.55762 18.0777 9.26837 17.8336 10.102C18.5651 10.9418 18.9956 11.938 18.9956 12.9689C18.9956 15.3657 17.3296 17.1316 13.8384 17.4986C14.7991 18.0079 15.5 19.4387 15.5 20.5167V22.9464C15.5 23.0388 15.4799 23.1054 15.4694 23.1845C19.5609 21.728 22.5 17.7821 22.5 13.1289C22.5 7.23947 17.7986 2.46448 12 2.46448Z" fill="white"/>
</svg>
