<svg width="24" height="24" viewBox="0 0 24 24" fill="none" xmlns="http://www.w3.org/2000/svg">
<path d="M10.1899 12.896C10.5786 13.4157 11.0746 13.8457 11.644 14.1568C12.2135 14.4679 12.8433 14.653 13.4905 14.6993C14.1378 14.7457 14.7875 14.6523 15.3955 14.4255C16.0035 14.1987 16.5557 13.8437 17.0144 13.3848L19.7298 10.6695C20.5541 9.81595 21.0103 8.67279 21 7.48621C20.9897 6.29963 20.5137 5.16457 19.6746 4.3255C18.8356 3.48643 17.7005 3.01048 16.5139 3.00017C15.3273 2.98986 14.1842 3.44601 13.3307 4.27037L11.7739 5.8181" stroke="#878787" stroke-width="2" stroke-linecap="round" stroke-linejoin="round"/>
<path d="M13.8102 11.0858C13.4215 10.5662 12.9256 10.1362 12.3561 9.82507C11.7866 9.51394 11.1569 9.32892 10.5096 9.28256C9.8623 9.2362 9.21263 9.32959 8.60461 9.5564C7.9966 9.78321 7.44448 10.1381 6.98569 10.5971L4.27037 13.3124C3.44601 14.1659 2.98986 15.3091 3.00017 16.4957C3.01048 17.6822 3.48643 18.8173 4.3255 19.6564C5.16457 20.4954 6.29963 20.9714 7.48621 20.9817C8.67279 20.992 9.81595 20.5359 10.6695 19.7115L12.2172 18.1638" stroke="#878787" stroke-width="2" stroke-linecap="round" stroke-linejoin="round"/>
</svg>
