<svg width="28" height="28" viewBox="0 0 28 28" fill="none" xmlns="http://www.w3.org/2000/svg">
<path d="M14 0C6.2685 0 0 6.36665 0 14.2192C0 20.8821 4.51733 26.4572 10.6073 28C10.542 27.808 10.5 27.5853 10.5 27.3092V24.8789C9.93183 24.8789 8.97983 24.8789 8.74067 24.8789C7.78283 24.8789 6.93117 24.4606 6.51817 23.6833C6.05967 22.8195 5.98033 21.4983 4.844 20.6901C4.50683 20.4212 4.7635 20.1143 5.152 20.1557C5.8695 20.3619 6.4645 20.862 7.0245 21.6037C7.58217 22.3467 7.84467 22.5149 8.8865 22.5149C9.39167 22.5149 10.1477 22.4853 10.8593 22.3716C11.242 21.3845 11.9035 20.4757 12.712 20.0467C8.05 19.5597 5.82517 17.2041 5.82517 14.0059C5.82517 12.629 6.40267 11.2972 7.38383 10.175C7.06183 9.06119 6.657 6.78967 7.5075 5.92467C9.60517 5.92467 10.8733 7.30631 11.1778 7.67956C12.2232 7.31579 13.3712 7.10961 14.5775 7.10961C15.7862 7.10961 16.9388 7.31579 17.9865 7.68193C18.2875 7.31105 19.5568 5.92467 21.6592 5.92467C22.5132 6.79086 22.1037 9.07186 21.7782 10.1833C22.7535 11.3031 23.3275 12.6314 23.3275 14.0059C23.3275 17.2017 21.1062 19.5562 16.4512 20.0455C17.7322 20.7245 18.6667 22.6322 18.6667 24.0696V27.3092C18.6667 27.4324 18.6398 27.5213 18.6258 27.6267C24.0812 25.6846 28 20.4235 28 14.2192C28 6.36665 21.7315 0 14 0Z" fill="#B4B4B4"/>
</svg>
