<svg width="145" height="21" viewBox="0 0 145 21" fill="none" xmlns="http://www.w3.org/2000/svg">
<path d="M92.594 20.8053C95.298 20.8053 97.69 19.7393 99.042 18.4393V9.39128H91.84V13.1873H94.908V16.3073C94.492 16.6193 93.764 16.8013 93.088 16.8013C89.474 16.8013 87.758 14.5653 87.758 10.7173C87.758 6.94728 89.812 4.71128 92.672 4.71128C94.284 4.71128 95.298 5.36128 96.26 6.21928L98.704 3.25528C97.378 1.92928 95.35 0.733276 92.516 0.733276C87.342 0.733276 83 4.42527 83 10.8733C83 17.4253 87.238 20.8053 92.594 20.8053Z" fill="#B4B4B4"/>
<path d="M102.432 20.4413H107.086V13.6293H109.53C113.664 13.6293 117.096 11.7313 117.096 7.18128C117.096 2.50128 113.664 1.07127 109.53 1.07127H102.432V20.4413ZM107.086 9.96328V4.76328H109.166C111.376 4.76328 112.572 5.36128 112.572 7.18128C112.572 9.00128 111.376 9.96328 109.166 9.96328H107.086ZM112.884 20.4413H118.084L111.844 9.39128L108.698 12.4333L112.884 20.4413Z" fill="#B4B4B4"/>
<path d="M120.321 20.4413H124.975V1.07127H120.321V20.4413Z" fill="#B4B4B4"/>
<path d="M128.89 20.4413H134.714C140.356 20.4413 144.256 17.3993 144.256 10.6653C144.256 3.93128 140.356 1.07127 134.454 1.07127H128.89V20.4413ZM133.544 16.6973V4.78928H134.168C137.288 4.78928 139.498 6.06328 139.498 10.6653C139.498 15.2673 137.288 16.6973 134.168 16.6973H133.544Z" fill="#B4B4B4"/>
<path d="M64.7565 7.00267C63.7864 6.03261 63.7864 4.45983 64.7564 3.48977C65.7265 2.51971 67.2993 2.51971 68.2693 3.48977L79.2435 14.464C80.2136 15.434 80.2136 17.0068 79.2436 17.9769C78.2735 18.9469 76.7007 18.9469 75.7307 17.9769L64.7565 7.00267Z" fill="#B4B4B4" fill-opacity="0.6"/>
<path d="M75.7306 3.48997C76.7007 2.51991 78.2734 2.51991 79.2435 3.48997C80.2136 4.46003 80.2136 6.03281 79.2435 7.00287L78.2341 8.01225C77.2641 8.98231 75.6913 8.98231 74.7212 8.01225C73.7512 7.04219 73.7512 5.46941 74.7212 4.49935L75.7306 3.48997Z" fill="#B4B4B4" fill-opacity="0.6"/>
<path d="M65.953 13.2676C66.9231 12.2975 68.4959 12.2975 69.4659 13.2676C70.436 14.2376 70.436 15.8104 69.4659 16.7805L68.2695 17.9769C67.2994 18.947 65.7266 18.947 64.7566 17.9769C63.7865 17.0069 63.7865 15.4341 64.7566 14.464L65.953 13.2676Z" fill="#B4B4B4" fill-opacity="0.6"/>
<path d="M0 20.6502H4.654V13.2662H11.258V9.39215H4.654V5.15415H12.35V1.28015H0V20.6502Z" fill="#B4B4B4"/>
<path d="M15.1714 20.6502H27.3654V16.7502H19.8254V1.28015H15.1714V20.6502Z" fill="#B4B4B4"/>
<path d="M30.1905 20.6502H42.7485V16.7502H34.8445V12.6422H41.3185V8.74215H34.8445V5.15415H42.4625V1.28015H30.1905V20.6502Z" fill="#B4B4B4"/>
<path d="M44.1494 20.6502H49.0894L50.7534 16.8802C51.1954 15.8662 51.6374 14.8522 52.0794 13.6562H52.1834C52.7034 14.8522 53.1454 15.8662 53.6134 16.8802L55.4074 20.6502H60.5814L55.2514 10.9002L60.2434 1.28015H55.3294L53.9254 4.76415C53.5354 5.67415 53.1194 6.68815 52.6774 7.93615H52.5734C52.0274 6.68815 51.6114 5.67415 51.1694 4.76415L49.6094 1.28015H44.4354L49.4534 10.6922L44.1494 20.6502Z" fill="#B4B4B4"/>
</svg>
