<svg width="150" height="22" viewBox="0 0 150 22" fill="none" xmlns="http://www.w3.org/2000/svg">
<path d="M92.594 21.036C95.298 21.036 97.69 19.97 99.042 18.67V9.62199H91.84V13.418H94.908V16.538C94.492 16.85 93.764 17.032 93.088 17.032C89.474 17.032 87.758 14.796 87.758 10.948C87.758 7.17799 89.812 4.94199 92.672 4.94199C94.284 4.94199 95.298 5.59199 96.26 6.44999L98.704 3.48599C97.378 2.15999 95.35 0.963989 92.516 0.963989C87.342 0.963989 83 4.65599 83 11.104C83 17.656 87.238 21.036 92.594 21.036Z" fill="#F9F9F9"/>
<path d="M102.432 20.672H107.086V13.86H109.53C113.664 13.86 117.096 11.962 117.096 7.41199C117.096 2.73199 113.664 1.30199 109.53 1.30199H102.432V20.672ZM107.086 10.194V4.99399H109.166C111.376 4.99399 112.572 5.59199 112.572 7.41199C112.572 9.23199 111.376 10.194 109.166 10.194H107.086ZM112.884 20.672H118.084L111.844 9.62199L108.698 12.664L112.884 20.672Z" fill="#F9F9F9"/>
<path d="M120.321 20.672H124.975V1.30199H120.321V20.672Z" fill="#F9F9F9"/>
<path d="M128.89 20.672H134.714C140.356 20.672 144.256 17.63 144.256 10.896C144.256 4.16199 140.356 1.30199 134.454 1.30199H128.89V20.672ZM133.544 16.928V5.01999H134.168C137.288 5.01999 139.498 6.29399 139.498 10.896C139.498 15.498 137.288 16.928 134.168 16.928H133.544Z" fill="#F9F9F9"/>
<path d="M64.7565 7.23338C63.7864 6.26332 63.7864 4.69054 64.7564 3.72048C65.7265 2.75042 67.2993 2.75042 68.2693 3.72048L79.2435 14.6947C80.2136 15.6647 80.2136 17.2375 79.2436 18.2076C78.2735 19.1776 76.7007 19.1776 75.7307 18.2076L64.7565 7.23338Z" fill="#7661E2"/>
<path d="M75.7306 3.72068C76.7007 2.75062 78.2734 2.75062 79.2435 3.72068C80.2136 4.69074 80.2136 6.26352 79.2435 7.23358L78.2341 8.24296C77.2641 9.21302 75.6913 9.21302 74.7212 8.24296C73.7512 7.2729 73.7512 5.70013 74.7212 4.73007L75.7306 3.72068Z" fill="#F6866A"/>
<path d="M65.953 13.4983C66.9231 12.5282 68.4959 12.5282 69.4659 13.4983C70.436 14.4683 70.436 16.0411 69.4659 17.0112L68.2695 18.2076C67.2994 19.1777 65.7266 19.1777 64.7566 18.2076C63.7865 17.2376 63.7865 15.6648 64.7566 14.6947L65.953 13.4983Z" fill="#F6866A"/>
<path d="M0 20.8809H4.654V13.4969H11.258V9.62287H4.654V5.38487H12.35V1.51086H0V20.8809Z" fill="#F9F9F9"/>
<path d="M15.1714 20.8809H27.3654V16.9809H19.8254V1.51086H15.1714V20.8809Z" fill="#F9F9F9"/>
<path d="M30.1905 20.8809H42.7485V16.9809H34.8445V12.8729H41.3185V8.97287H34.8445V5.38487H42.4625V1.51086H30.1905V20.8809Z" fill="#F9F9F9"/>
<path d="M44.1494 20.8809H49.0894L50.7534 17.1109C51.1954 16.0969 51.6374 15.0829 52.0794 13.8869H52.1834C52.7034 15.0829 53.1454 16.0969 53.6134 17.1109L55.4074 20.8809H60.5814L55.2514 11.1309L60.2434 1.51086H55.3294L53.9254 4.99487C53.5354 5.90487 53.1194 6.91887 52.6774 8.16687H52.5734C52.0274 6.91887 51.6114 5.90487 51.1694 4.99487L49.6094 1.51086H44.4354L49.4534 10.9229L44.1494 20.8809Z" fill="#F9F9F9"/>
</svg>
