<svg width="150" height="22" viewBox="0 0 150 22" fill="none" xmlns="http://www.w3.org/2000/svg">
<path d="M92.594 21.0359C95.298 21.0359 97.69 19.9699 99.042 18.6699V9.62187H91.84V13.4179H94.908V16.5379C94.492 16.8499 93.764 17.0319 93.088 17.0319C89.474 17.0319 87.758 14.7959 87.758 10.9479C87.758 7.17787 89.812 4.94187 92.672 4.94187C94.284 4.94187 95.298 5.59187 96.26 6.44987L98.704 3.48587C97.378 2.15987 95.35 0.963867 92.516 0.963867C87.342 0.963867 83 4.65587 83 11.1039C83 17.6559 87.238 21.0359 92.594 21.0359Z" fill="#F9F9F9"/>
<path d="M102.432 20.6719H107.086V13.8599H109.53C113.664 13.8599 117.096 11.9619 117.096 7.41187C117.096 2.73187 113.664 1.30187 109.53 1.30187H102.432V20.6719ZM107.086 10.1939V4.99387H109.166C111.376 4.99387 112.572 5.59187 112.572 7.41187C112.572 9.23187 111.376 10.1939 109.166 10.1939H107.086ZM112.884 20.6719H118.084L111.844 9.62187L108.698 12.6639L112.884 20.6719Z" fill="#F9F9F9"/>
<path d="M120.321 20.6719H124.975V1.30187H120.321V20.6719Z" fill="#F9F9F9"/>
<path d="M128.89 20.6719H134.714C140.356 20.6719 144.256 17.6299 144.256 10.8959C144.256 4.16187 140.356 1.30187 134.454 1.30187H128.89V20.6719ZM133.544 16.9279V5.01987H134.168C137.288 5.01987 139.498 6.29387 139.498 10.8959C139.498 15.4979 137.288 16.9279 134.168 16.9279H133.544Z" fill="#F9F9F9"/>
<path d="M64.7565 7.23301C63.7864 6.26295 63.7864 4.69017 64.7564 3.72011C65.7265 2.75005 67.2993 2.75005 68.2693 3.72011L79.2435 14.6943C80.2136 15.6644 80.2136 17.2372 79.2436 18.2072C78.2735 19.1773 76.7007 19.1773 75.7307 18.2072L64.7565 7.23301Z" fill="#7661E2"/>
<path d="M75.7309 3.72032C76.7009 2.75026 78.2737 2.75026 79.2438 3.72032C80.2138 4.69038 80.2138 6.26315 79.2438 7.23321L78.2344 8.2426C77.2643 9.21266 75.6915 9.21266 74.7215 8.2426C73.7514 7.27254 73.7514 5.69976 74.7215 4.7297L75.7309 3.72032Z" fill="#F6866A"/>
<path d="M65.953 13.4981C66.9231 12.5281 68.4959 12.5281 69.4659 13.4981C70.436 14.4682 70.436 16.041 69.4659 17.011L68.2695 18.2075C67.2994 19.1776 65.7266 19.1776 64.7566 18.2075C63.7865 17.2375 63.7865 15.6647 64.7566 14.6946L65.953 13.4981Z" fill="#F6866A"/>
<path d="M0 20.8807H4.654V13.4967H11.258V9.62274H4.654V5.38474H12.35V1.51074H0V20.8807Z" fill="#F9F9F9"/>
<path d="M15.1714 20.8807H27.3654V16.9807H19.8254V1.51074H15.1714V20.8807Z" fill="#F9F9F9"/>
<path d="M30.1905 20.8807H42.7485V16.9807H34.8445V12.8727H41.3185V8.97274H34.8445V5.38474H42.4625V1.51074H30.1905V20.8807Z" fill="#F9F9F9"/>
<path d="M44.1494 20.8807H49.0894L50.7534 17.1107C51.1954 16.0967 51.6374 15.0827 52.0794 13.8867H52.1834C52.7034 15.0827 53.1454 16.0967 53.6134 17.1107L55.4074 20.8807H60.5814L55.2514 11.1307L60.2434 1.51074H55.3294L53.9254 4.99474C53.5354 5.90474 53.1194 6.91874 52.6774 8.16674H52.5734C52.0274 6.91874 51.6114 5.90474 51.1694 4.99474L49.6094 1.51074H44.4354L49.4534 10.9227L44.1494 20.8807Z" fill="#F9F9F9"/>
</svg>
