<svg width="145" height="21" viewBox="0 0 145 21" fill="none" xmlns="http://www.w3.org/2000/svg">
<path d="M92.594 20.072C95.298 20.072 97.69 19.006 99.042 17.706V8.658H91.84V12.454H94.908V15.574C94.492 15.886 93.764 16.068 93.088 16.068C89.474 16.068 87.758 13.832 87.758 9.984C87.758 6.214 89.812 3.978 92.672 3.978C94.284 3.978 95.298 4.628 96.26 5.486L98.704 2.522C97.378 1.196 95.35 0 92.516 0C87.342 0 83 3.692 83 10.14C83 16.692 87.238 20.072 92.594 20.072Z" fill="#878787"/>
<path d="M102.432 19.708H107.086V12.896H109.53C113.664 12.896 117.096 10.998 117.096 6.448C117.096 1.768 113.664 0.337998 109.53 0.337998H102.432V19.708ZM107.086 9.23V4.03H109.166C111.376 4.03 112.572 4.628 112.572 6.448C112.572 8.268 111.376 9.23 109.166 9.23H107.086ZM112.884 19.708H118.084L111.844 8.658L108.698 11.7L112.884 19.708Z" fill="#878787"/>
<path d="M120.321 19.708H124.975V0.337998H120.321V19.708Z" fill="#878787"/>
<path d="M128.89 19.708H134.714C140.356 19.708 144.256 16.666 144.256 9.932C144.256 3.198 140.356 0.337998 134.454 0.337998H128.89V19.708ZM133.544 15.964V4.056H134.168C137.288 4.056 139.498 5.33 139.498 9.932C139.498 14.534 137.288 15.964 134.168 15.964H133.544Z" fill="#878787"/>
<path d="M64.7565 6.26934C63.7864 5.29928 63.7864 3.7265 64.7564 2.75644C65.7265 1.78639 67.2993 1.78638 68.2693 2.75644L79.2435 13.7306C80.2136 14.7007 80.2136 16.2735 79.2436 17.2435C78.2735 18.2136 76.7007 18.2136 75.7307 17.2435L64.7565 6.26934Z" fill="#B4B4B4"/>
<path d="M75.7306 2.75666C76.7007 1.7866 78.2734 1.7866 79.2435 2.75665C80.2136 3.72671 80.2136 5.29949 79.2435 6.26955L78.2341 7.27894C77.2641 8.24899 75.6913 8.249 74.7212 7.27894C73.7512 6.30888 73.7512 4.7361 74.7212 3.76604L75.7306 2.75666Z" fill="#B4B4B4"/>
<path d="M65.953 12.5343C66.9231 11.5642 68.4959 11.5642 69.4659 12.5343C70.436 13.5043 70.436 15.0771 69.4659 16.0472L68.2695 17.2436C67.2994 18.2137 65.7266 18.2137 64.7566 17.2436C63.7865 16.2736 63.7865 14.7008 64.7566 13.7308L65.953 12.5343Z" fill="#B4B4B4"/>
<path d="M0 19.9169H4.654V12.5329H11.258V8.65888H4.654V4.42088H12.35V0.546875H0V19.9169Z" fill="#878787"/>
<path d="M15.1714 19.9169H27.3654V16.0169H19.8254V0.546875H15.1714V19.9169Z" fill="#878787"/>
<path d="M30.1905 19.9169H42.7485V16.0169H34.8445V11.9089H41.3185V8.00888H34.8445V4.42088H42.4625V0.546875H30.1905V19.9169Z" fill="#878787"/>
<path d="M44.1494 19.9169H49.0894L50.7534 16.1469C51.1954 15.1329 51.6374 14.1189 52.0794 12.9229H52.1834C52.7034 14.1189 53.1454 15.1329 53.6134 16.1469L55.4074 19.9169H60.5814L55.2514 10.1669L60.2434 0.546875H55.3294L53.9254 4.03088C53.5354 4.94088 53.1194 5.95488 52.6774 7.20288H52.5734C52.0274 5.95488 51.6114 4.94088 51.1694 4.03088L49.6094 0.546875H44.4354L49.4534 9.95888L44.1494 19.9169Z" fill="#878787"/>
</svg>
